<?xml version="1.0" encoding="UTF-8" standalone="no"?>
<!-- Created with Inkscape (http://www.inkscape.org/) -->

<svg
   xmlns:dc="http://purl.org/dc/elements/1.1/"
   xmlns:cc="http://creativecommons.org/ns#"
   xmlns:rdf="http://www.w3.org/1999/02/22-rdf-syntax-ns#"
   xmlns:svg="http://www.w3.org/2000/svg"
   xmlns="http://www.w3.org/2000/svg"
   version="1.1"
   width="331.84375"
   height="330.5"
   id="svg2">
  <defs
     id="defs4">
    <filter
       color-interpolation-filters="sRGB"
       id="filter3114">
      <feGaussianBlur
         stdDeviation="3"
         id="feGaussianBlur3116" />
      <feColorMatrix
         values="1 0 0 0 0 0 1 0 0 0 0 0 1 0 0 0 0 0 6 -2.5 "
         result="fbSourceGraphic"
         id="feColorMatrix3118" />
    </filter>
    <filter
       color-interpolation-filters="sRGB"
       id="filter4112-9">
      <feGaussianBlur
         id="feGaussianBlur4114-8"
         stdDeviation="1.1487023" />
    </filter>
    <filter
       x="-0.092804968"
       y="-0.11246847"
       width="1.1856099"
       height="1.2249368"
       color-interpolation-filters="sRGB"
       id="filter4142">
      <feGaussianBlur
         id="feGaussianBlur4144"
         stdDeviation="6.4347193" />
    </filter>
    <filter
       color-interpolation-filters="sRGB"
       id="filter4154">
      <feGaussianBlur
         id="feGaussianBlur4156"
         stdDeviation="2.8717558" />
    </filter>
  </defs>
  <metadata
     id="metadata7">
    <rdf:RDF>
      <cc:Work
         rdf:about="">
        <dc:format>image/svg+xml</dc:format>
        <dc:type
           rdf:resource="http://purl.org/dc/dcmitype/StillImage" />
        <dc:title></dc:title>
      </cc:Work>
    </rdf:RDF>
  </metadata>
  <g
     transform="translate(-59.3125,-219.09375)"
     id="layer1">
    <rect
       width="74.285713"
       height="74.285713"
       x="100"
       y="260.9241"
       id="rect2985"
       style="fill:#ff0000;fill-opacity:1;fill-rule:evenodd;stroke:none" />
    <path
       d="m 186.43081,260.9241 0,74.28125 74.28125,0 0,-74.28125 -74.28125,0 z m 19.28125,20 35.71875,0 0,34.28125 -35.71875,0 0,-34.28125 z"
       id="rect3799"
       style="fill:#4700ff;fill-opacity:1;fill-rule:evenodd;stroke:none" />
    <rect
       width="74.285713"
       height="74.285713"
       x="272.85715"
       y="260.9241"
       id="rect3804"
       style="fill:#800080;fill-opacity:1;fill-rule:evenodd;stroke:none" />
    <path
       d="m 100,346.9989 0,74.28125 74.28125,0 0,-74.28125 -74.28125,0 z m 19.28125,20 35.71875,0 0,34.28125 -35.71875,0 0,-34.28125 z"
       id="path3806"
       style="fill:#ff0000;fill-opacity:1;fill-rule:evenodd;stroke:none" />
    <rect
       width="74.285713"
       height="74.285713"
       x="186.42635"
       y="346.99438"
       id="rect3808"
       style="fill:#ffb300;fill-opacity:1;fill-rule:evenodd;stroke:none" />
    <path
       d="m 272.85715,346.99777 0,74.28125 74.28125,0 0,-74.28125 -74.28125,0 z m 19.28125,20 35.71875,0 0,34.28125 -35.71875,0 0,-34.28125 z"
       id="path3810"
       style="fill:#0e6600;fill-opacity:1;fill-rule:evenodd;stroke:none" />
    <rect
       width="74.285713"
       height="74.285713"
       x="186.42746"
       y="433.06696"
       id="rect3812"
       style="fill:#00af00;fill-opacity:1;fill-rule:evenodd;stroke:none" />
    <rect
       width="74.285713"
       height="74.285713"
       x="272.85715"
       y="433.06696"
       id="rect3814"
       style="fill:#4785ff;fill-opacity:1;fill-rule:evenodd;stroke:none" />
    <path
       d="m 100,433.07142 0,74.28125 74.28125,0 0,-74.28125 -74.28125,0 z m 19.28125,20 35.71875,0 0,34.28125 -35.71875,0 0,-34.28125 z"
       id="path3816"
       style="fill:#000000;fill-opacity:1;fill-rule:evenodd;stroke:none" />
    <path
       d="m 414.875,285.0625 c -11.66971,0 -22.65186,4.94223 -31.15625,13.3125 -7.2761,7.1611 -13.79453,15.75731 -19.78125,25.625 0.005,-0.008 -0.0673,0.0824 -0.0937,0.125 -0.0325,0.0537 -0.0612,0.10244 -0.0937,0.15625 -0.11065,0.17716 -0.23138,0.36521 -0.21875,0.34375 a 8.1488012,8.1488012 0 0 0 -0.15625,0.28125 c 0.07,-0.13089 -2.15625,3.99521 -2.15625,7.9375 0,3.42255 0.95581,7.83879 4.65625,11.53125 3.69371,3.68574 8.1329,4.59375 11.46875,4.59375 l 2.96875,0 c 5.58162,0 9.17592,-2.25884 11.96875,-6 A 8.1488012,8.1488012 0 0 0 393.5,341.4375 c 2.64133,-4.31086 5.71705,-7.57226 9.53125,-10.28125 0.0365,-0.0259 0.0571,-0.0679 0.0937,-0.0937 l 0,0.0312 c 2.54752,-1.78118 4.73188,-2.49146 7.0625,-2.84375 -1.01389,3.04728 -1.9587,6.30631 -3.03125,9.15625 a 8.1488012,8.1488012 0 0 0 0,0.0625 8.1488012,8.1488012 0 0 0 -0.0937,0.21875 c -3.14642,8.41487 -6.70021,17.07987 -10.6875,26.03125 -4.02059,9.08484 -8.37714,18.38346 -13.03125,27.8125 a 8.1488012,8.1488012 0 0 0 -0.0625,0.0937 c 0.0343,-0.0724 -0.39372,1.01399 -0.46875,1.1875 -0.008,0.0189 -0.0654,0.13324 -0.0625,0.125 l 0.0312,0 c -0.79189,2.13128 -1.84375,5.1012 -1.84375,8.6875 0,6.06677 2.57065,11.55462 7.21875,15.46875 l 0.0312,0 c 4.01847,3.37712 9.02927,5.28125 14.34375,5.28125 9.76097,0 17.81565,-6.12424 22.0625,-14.0625 a 8.1488012,8.1488012 0 0 0 0.0625,-0.0937 c -0.007,0.0131 0.0461,-0.12364 0.0937,-0.21875 0.0224,-0.0448 0.0655,-0.1 0.0625,-0.0937 l -0.0312,0 c 1.49613,-2.98704 2.48332,-6.05284 3.875,-10.5 1.42887,-4.566 3.13713,-10.48042 5.1875,-17.875 3.41901,-12.33053 8.26976,-30.98767 13.5625,-51.65625 l 0.125,0 c -1.61446,6.96539 -3.3917,14.45807 -4.34375,19.4375 a 8.1488012,8.1488012 0 0 0 0,0.0312 c -1.81813,9.66219 -2.71875,19.64028 -2.71875,29.875 0,7.82577 0.9432,15.785 2.8125,23.84375 a 8.1488012,8.1488012 0 0 0 0.0312,0.0625 8.1488012,8.1488012 0 0 0 0.40625,1.28125 8.1488012,8.1488012 0 0 0 0.0937,0.1875 c 1.14312,4.2925 2.77877,8.6058 6,12.34375 4.00801,4.65095 9.71256,7.4375 16.0625,7.4375 4.4223,0 8.57185,-1.23939 12.15625,-3.28125 0.0117,-0.007 0.0195,-0.0245 0.0312,-0.0312 -0.0682,0.0401 -0.3862,0.25428 0.0625,0 3.28674,-1.86257 6.23138,-4.40793 8.53125,-7.625 a 8.1488012,8.1488012 0 0 0 0.0625,-0.125 8.1488012,8.1488012 0 0 0 0.53125,-0.875 8.1488012,8.1488012 0 0 0 0.0312,-0.0625 c -0.005,0.01 0.0985,-0.16594 0.0937,-0.15625 2.14196,-3.42361 3.5,-7.42482 3.5,-11.78125 0,-2.61555 -0.63302,-4.851 -1.40625,-6.875 a 8.1488012,8.1488012 0 0 0 -0.5625,-1.75 c -4.8584,-10.86595 -7.40033,-23.1238 -7.4375,-37.25 0.008,-0.38073 0.008,-0.40518 0,-0.0625 a 8.1488012,8.1488012 0 0 0 0,-0.0625 8.1488012,8.1488012 0 0 0 0,-0.0312 c -10e-6,-0.0107 10e-6,-0.0205 0,-0.0312 a 8.1488012,8.1488012 0 0 0 0,-0.0625 l 0,-0.0625 c 0.18413,-7.84103 1.15501,-16.02568 2.5,-24.375 l 20.84375,0 c 6.15108,0 11.93053,-2.458 16.21875,-6.8125 4.21963,-4.28564 6.59375,-9.9677 6.59375,-16 0,-5.33851 -1.91941,-10.58627 -6.28125,-14.59375 -0.006,-0.006 -0.025,0.006 -0.0312,0 -0.007,-0.007 0.007,-0.0245 0,-0.0312 -0.007,-0.006 -0.0245,0.006 -0.0312,0 -0.008,-0.007 0.008,-0.024 0,-0.0312 -0.0683,-0.064 -0.0825,-0.0907 -0.15625,-0.15625 a 8.1488012,8.1488012 0 0 0 -1.3125,-0.9375 8.1488012,8.1488012 0 0 0 -0.0625,-0.0312 c -3.49798,-2.66984 -7.66291,-4.21875 -12.1875,-4.21875 l -92.6875,0 z"
       transform="translate(-154.01298,109.47521)"
       id="path4140"
       style="opacity:0.46551729;fill:#00f5f5;fill-opacity:1;stroke-linecap:butt;stroke-linejoin:round;filter:url(#filter4142)" />
    <path
       d="m 414.875,293.21875 c -9.43243,0 -18.24018,3.88494 -25.4375,10.96875 -6.76093,6.65407 -12.96167,14.78071 -18.71875,24.3125 a 5.5675003,5.5675003 0 0 0 -0.15625,0.25 c -0.50291,0.93999 -1.1875,1.71429 -1.1875,4.09375 0,1.73815 0.53898,4.04267 2.25,5.75 1.71102,1.70733 3.98807,2.21875 5.71875,2.21875 l 2.96875,0 c 2.29527,0 4.97809,-1.70811 6.1875,-3.65625 l 0.0625,0.0312 c 3.19471,-5.21402 7.10712,-9.42136 11.875,-12.78125 0.008,-0.005 0.0237,0.005 0.0312,0 4.5931,-3.2114 9.18385,-4.6875 14.28125,-4.6875 l 8.84375,0 c -2.13427,7.16521 -4.37547,14.0869 -6.8125,20.5625 a 5.5675003,5.5675003 0 0 0 0,0.0312 c -3.23024,8.65403 -6.88572,17.55245 -10.96875,26.71875 -4.06795,9.19185 -8.45313,18.56542 -13.15625,28.09375 a 5.5675003,5.5675003 0 0 0 -0.21875,0.53125 c -0.77061,2.06748 -1.34375,3.69183 -1.34375,5.96875 0,3.44046 1.66828,7.02812 4.3125,9.25 2.51111,2.11516 5.82279,3.34375 9.125,3.34375 6.23582,0 11.82387,-4.0468 14.875,-9.75 a 5.5675003,5.5675003 0 0 0 0.0625,-0.125 c 1.09247,-2.16511 2.02033,-4.94626 3.40625,-9.375 1.38592,-4.42874 3.08932,-10.2834 5.125,-17.625 3.79562,-13.68877 9.01094,-33.633 15.125,-57.625 l 16.59375,0 c -2.66042,11.24914 -5.14947,21.898 -6.53125,29.125 -1.71834,9.13186 -2.5625,18.60985 -2.5625,28.375 0,7.17824 0.85569,14.50705 2.59375,22 a 5.5675003,5.5675003 0 0 0 0.0312,0.0312 c 0.96476,4.09328 2.34365,7.58264 4.75,10.375 2.40635,2.79236 6.1566,4.59375 9.875,4.59375 2.89354,0 5.71333,-0.82206 8.15625,-2.21875 0.0201,-0.0113 0.0425,-0.0199 0.0625,-0.0312 2.33151,-1.32125 4.38253,-3.10615 5.9375,-5.28125 a 5.5675003,5.5675003 0 0 0 0.0312,-0.0625 c 1.64681,-2.34258 2.65625,-5.22775 2.65625,-8.1875 0,-1.91722 -0.54487,-3.70452 -1.3125,-5.28125 l 0.0625,-0.0312 c -5.38502,-12.04375 -8.14094,-25.56147 -8.15625,-40.75 4.4e-4,-0.0204 -4.5e-4,-0.0421 0,-0.0625 -10e-6,-0.0213 0,-0.0411 0,-0.0625 0.23424,-10.54917 1.57993,-21.41156 3.6875,-32.53125 l 27.8125,0 c 3.8485,0 7.70436,-1.63135 10.40625,-4.375 2.67828,-2.72018 4.25,-6.51705 4.25,-10.28125 0,-3.09194 -1.28659,-6.45764 -3.65625,-8.625 -0.006,-0.006 -0.0248,0.006 -0.0312,0 -0.0273,-0.0249 -0.0349,-0.0692 -0.0625,-0.0937 l -0.0312,0.0312 c -2.17409,-1.96961 -5.18841,-3.15625 -8.125,-3.15625 l -92.6875,0 z"
       transform="translate(-151.2353,109.48322)"
       id="path3254"
       style="opacity:0.46551729;fill:#00f5f5;fill-opacity:1;stroke-linecap:butt;stroke-linejoin:round;filter:url(#filter4154)" />
    <path
       d="m 244.44198,510.0343 q 0,-1.3583 0.99809,-4.03607 7.10673,-14.39795 13.25547,-28.2915 6.18862,-13.8933 11.09934,-27.04942 4.9511,-13.15588 9.0633,-28.09731 l -16.32973,0 q -9.34284,0 -17.48751,5.70489 -8.10512,5.70491 -13.45525,14.43675 -0.47911,0.97015 -1.47725,0.97015 l -2.99447,0 q -2.39557,0 -2.39557,-2.406 0,-0.5047 0.51905,-1.47484 8.34457,-13.81581 17.88691,-23.20733 9.54228,-9.39178 21.52011,-9.39178 l 92.7086,0 q 2.635,0 4.47173,1.70758 1.87633,1.66883 1.87633,4.57952 0,3.64788 -2.67486,6.36459 -2.67511,2.71647 -6.42804,2.71647 l -32.53986,0 q -4.11246,19.55945 -4.51159,38.11001 0,23.86702 8.62405,43.15495 0.7584,1.47469 0.7584,3.02704 0,2.6778 -1.63691,5.0063 -1.63691,2.2897 -4.19218,3.72561 -2.55527,1.47472 -5.42995,1.47472 -6.70759,0 -9.223,-10.67233 -2.47554,-10.67231 -2.47554,-20.76238 0,-14.16528 2.47554,-27.32115 2.51541,-13.15612 7.98523,-35.74276 l -27.82845,0 q -20.20275,79.55738 -24.31494,87.70713 -3.63335,6.79149 -9.98166,6.79149 -3.11412,0 -5.50994,-2.01804 -2.35545,-1.97923 -2.35545,-5.00628"
       id="use3958"
       style="fill:#fbfdfe;fill-opacity:1;stroke:#00c5ff;stroke-linecap:butt;stroke-linejoin:round;stroke-opacity:1" />
    <rect
       width="330.75726"
       height="329.43747"
       x="59.856636"
       y="219.62677"
       id="rect4169"
       style="opacity:0.46551729;fill:none;stroke:none" />
  </g>
</svg>
